<?xml version="1.0" standalone="no"?>
<!DOCTYPE svg PUBLIC "-//W3C//DTD SVG 20010904//EN" "http://www.w3.org/TR/2001/REC-SVG-20010904/DTD/svg10.dtd">
<!-- Created using Krita: https://krita.org -->
<svg xmlns="http://www.w3.org/2000/svg" 
    xmlns:xlink="http://www.w3.org/1999/xlink"
    xmlns:krita="http://krita.org/namespaces/svg/krita"
    xmlns:sodipodi="http://sodipodi.sourceforge.net/DTD/sodipodi-0.dtd"
    width="240pt"
    height="240pt"
    viewBox="0 0 240 240">
<defs/>
<path id="shape0" transform="matrix(1.27487993964617 0 0 1.27487993964617 104.394008201742 21.14235296863)" fill="none" stroke="#000000" stroke-width="24" stroke-linecap="round" stroke-linejoin="bevel" krita:marker-fill-method="auto" d="M16.6257 26.5284C23.1586 20.0775 33.4543 6.42493 48.2865 1.10328C58.033 -1.84476 67.633 1.11524 77.0865 9.98328C91.2666 23.2853 92.52 37.3782 85.68 47.8182C81.12 54.7782 66.6422 76.0362 39.8754 95.0895C23.06 107.059 9.14731 97.859 0 89.2182" sodipodi:nodetypes="cczzsc"/><path id="shape01" transform="matrix(-1.27487994877946 0 0 -1.27487994877946 135.605992617573 218.85764703137)" fill="none" stroke="#000000" stroke-width="24" stroke-linecap="round" stroke-linejoin="bevel" krita:marker-fill-method="auto" d="M16.6257 26.5284C23.1586 20.0775 33.4543 6.42493 48.2865 1.10328C58.033 -1.84476 67.633 1.11524 77.0865 9.98328C91.2666 23.2853 92.52 37.3782 85.68 47.8182C81.12 54.7782 66.6422 76.0362 39.8754 95.0895C23.06 107.059 9.14731 97.859 0 89.2182" sodipodi:nodetypes="cczzsc"/>
</svg>
