<?xml version="1.0" standalone="no"?>
<!DOCTYPE svg PUBLIC "-//W3C//DTD SVG 20010904//EN" "http://www.w3.org/TR/2001/REC-SVG-20010904/DTD/svg10.dtd">
<!-- Created using Krita: https://krita.org -->
<svg xmlns="http://www.w3.org/2000/svg" 
    xmlns:xlink="http://www.w3.org/1999/xlink"
    xmlns:krita="http://krita.org/namespaces/svg/krita"
    xmlns:sodipodi="http://sodipodi.sourceforge.net/DTD/sodipodi-0.dtd"
    width="122.88pt"
    height="30.72pt"
    viewBox="0 0 122.88 30.72">
<defs/>
<path id="shape0" transform="matrix(0.24 0 0 0.24 0.0576023137357657 6.71999063431573)" fill="#313131" fill-rule="evenodd" stroke-opacity="0" stroke="#000000" stroke-width="0" stroke-linecap="square" stroke-linejoin="bevel" d="M46.08 3.90237e-05C33.8369 0.0318419 22.095 4.92904 13.4575 13.6059C4.82003 22.2827 -0.0237506 34.0468 8.75726e-05 46.2898C0.0239257 58.5329 4.91348 70.278 13.5847 78.9212C22.2559 87.5643 34.0168 92.4157 46.2599 92.3998C58.503 92.384 70.2513 87.5021 78.9 78.8365C87.5488 70.1709 92.4079 58.4131 92.4 46.17C92.3762 33.911 87.4802 22.1506 78.7977 13.4962C70.1152 4.84185 58.339 -0.0158843 46.08 3.90237e-05ZM46.08 87.57C35.1165 87.5435 24.6008 83.161 16.8634 75.3936C9.12603 67.6263 4.78415 57.0937 4.80004 46.1302C4.81593 35.1667 9.18831 24.6467 16.9482 16.9019C24.708 9.15696 35.2364 4.80489 46.1999 4.81016C57.1634 4.81544 67.6876 9.17765 75.44 16.93C83.1924 24.6824 87.5547 35.2065 87.56 46.17C87.5441 57.1529 83.1626 67.6912 75.3872 75.4479C67.6117 83.2046 57.0629 87.5607 46.08 87.55Z" sodipodi:nodetypes="ccccccccccccccccccc"/><path id="shape1" transform="matrix(0.24 0 0 0.24 24.9216 4.8264)" fill="#313131" stroke-opacity="0" stroke="#000000" stroke-width="0" stroke-linecap="square" stroke-linejoin="bevel" d="M4.26326e-14 88.19L5.91 88.19L5.91 52.55C5.91 39.75 15.21 30.55 27.29 30.55C39.73 30.55 46.86 38.88 46.86 51.55L46.86 88.15L52.78 88.15L52.78 50.5C52.78 35.76 43.72 25.13 28.14 25.13C16.91 25.13 10.02 30.81 5.91 38.06L5.91 26.58L0 26.58ZM74.88 0L80.8 0L80.8 88.19L74.88 88.19ZM111.6 107.89C120.42 107.89 126.7 103.29 132.13 90.37L158.83 26.58L152.3 26.58L130.08 81.67L104.47 26.58L97.59 26.58L127.16 87.83C122.57 98.58 118.34 102.33 111.94 102.33C108.302 102.468 104.688 101.676 101.44 100.03L99.38 105.23C103.198 107.035 107.378 107.944 111.6 107.89Z" sodipodi:nodetypes="cccccccccccccccccccccccccccccc"/><path id="shape2" transform="matrix(0.24 0 0 0.24 6.1848 12.100797128154)" fill="#00aff0" stroke-opacity="0" stroke="#000000" stroke-width="0" stroke-linecap="square" stroke-linejoin="bevel" d="M39.76 20.77L39.76 17C39.7579 14.7619 39.3073 12.5468 38.4348 10.4858C37.5623 8.42473 36.2855 6.55933 34.68 5.00001C31.4358 1.79284 27.0519 -0.00535199 22.49 1.1966e-05L19.39 1.1966e-05C14.8316 -0.00271689 10.4517 1.79527 7.21 5.00001C5.60404 6.55844 4.32759 8.42388 3.45666 10.4853C2.58573 12.5466 2.13795 14.7622 2.14 17L2.14 20.77L0 24.63L0 30.19C0.0038037 32.6757 0.504762 35.1356 1.47333 37.4248C2.44189 39.714 3.85864 41.7865 5.64 43.52C9.26667 47.0764 14.1506 49.0673 19.23 49.06L22.68 49.06C27.7464 49.0612 32.6156 47.0704 36.23 43.52C38.0145 41.7883 39.434 39.7164 40.4044 37.427C41.3748 35.1375 41.8766 32.6766 41.88 30.19L41.88 24.63ZM22.96 37.83L22.96 42.28C22.9624 42.6063 22.882 42.9279 22.7264 43.2147C22.5707 43.5015 22.3449 43.7442 22.07 43.92L21.23 43.92C21.1306 43.9351 21.0294 43.9351 20.93 43.92L20.73 43.92C20.6469 43.9289 20.5631 43.9289 20.48 43.92L20.1 43.92C19.8198 43.7402 19.5888 43.4933 19.4282 43.2017C19.2675 42.9101 19.1822 42.5829 19.18 42.25L19.18 37.83C18.0212 37.3801 17.0569 36.5365 16.4568 35.4479C15.8567 34.3592 15.6584 33.0934 15.8967 31.8734C16.135 30.6534 16.795 29.5553 17.7606 28.7724C18.7262 27.9896 19.9371 27.5709 21.18 27.59L21.29 27.59C22.5329 27.5709 23.7438 27.9896 24.7094 28.7724C25.675 29.5553 26.335 30.6534 26.5733 31.8734C26.8116 33.0934 26.6133 34.3592 26.0132 35.4479C25.4131 36.5365 24.4488 37.3801 23.29 37.83ZM32.05 20.89L9.84 20.89L9.84 17C9.84246 15.7634 10.0924 14.5396 10.5749 13.401C11.0575 12.2624 11.7631 11.2318 12.65 10.37C14.4426 8.5919 16.8651 7.58912 19.39 7.58001L22.49 7.58001C25.0151 7.58804 27.438 8.59099 29.23 10.37C30.1151 11.2332 30.8195 12.264 31.302 13.4023C31.7844 14.5406 32.0353 15.7637 32.04 17Z" sodipodi:nodetypes="cccccccccccccccccccccccccccccccccccccccccccccccccccccc"/><g id="group0" transform="matrix(0.594285283042073 0 0 0.594285283042073 63.0394888656039 1.57314600444279)" fill="none">
  <path id="shape0" fill="#00aff0" fill-rule="evenodd" stroke-opacity="0" stroke="#000000" stroke-width="0" stroke-linecap="square" stroke-linejoin="bevel" d="M3.00517 4.3684L3.11547 6.1669L3.41427 7.8017L3.90147 9.2729L4.57717 10.5804L5.44137 11.7244L6.49397 12.7047L7.73507 13.5213L9.16467 14.1744L10.7827 14.6638L12.5892 14.9896L14.5841 15.1518L15.371 14.2641L16.1825 13.365L17.0178 12.459L17.8762 11.5507L18.7567 10.6447L19.6587 9.7457L20.5812 8.8582L21.5234 7.987L22.4846 7.1366L23.464 6.3115L24.4606 5.5166L25.4737 4.7562L26.5025 4.0352L27.5462 3.358L28.6039 2.7293L29.6749 2.1538L30.7583 1.636L31.8532 1.1805L32.959 0.792L34.0748 0.4751L35.1997 0.2344L36.333 0.0744L37.4738 0L38.6213 0.0155L39.7748 0.1258L41.682 0.1313L43.3379 0.4572L44.7425 1.1036L45.8957 2.0703L46.7975 3.3575L47.448 4.965L47.8471 6.893L47.9949 9.1414L47.7435 10.4443L47.426 11.7117L47.0425 12.9436L46.5929 14.1401L46.0773 15.301L45.4956 16.4265L44.8478 17.5166L44.1339 18.5711L43.3541 19.5902L42.5081 20.5738L41.5961 21.5219L40.618 22.4345L39.5738 23.3116L38.4636 24.1533L37.2874 24.9595L36.045 25.7302L34.7366 26.4655L32.3944 26.0829L30.9801 25.1949L30.1625 23.5943L29.6101 21.0738L30.1016 19.8929L30.7274 18.6838L31.4875 17.4463L32.382 16.1806L33.4108 14.8866L17.7661 18.3338L17.2001 19.0765L16.6639 19.8652L16.1575 20.7L15.6808 21.5807L15.2339 22.5074L14.8168 23.4801L14.4294 24.4989L14.0718 25.5636L13.744 26.6743L13.4459 27.831L13.1776 29.0337L12.939 30.2824L12.7302 31.5771L12.5512 32.9178L12.6023 33.706L12.6848 34.7896L12.8511 36.0768L13.1536 37.4759L13.645 38.8951L14.3776 40.2428L15.4041 41.4271L16.7768 42.3563L18.5484 42.9387L20.7713 43.0825L23.0105 43.1512L24.5425 43.1218L25.3675 42.9941L26.558 42.0784L27.4975 41.124L28.1861 40.1309L28.6237 39.0991L28.8103 38.0286L28.7459 36.9194L28.4305 35.7716L27.8642 34.585L27.0469 33.3598L29.4775 33.2935L30.7592 33.4482L31.1436 35.1814L31.3177 36.7912L31.2817 38.2776L31.0353 39.6406L30.5787 40.8801L29.9119 41.9962L29.0348 42.9889L27.9475 43.8581L26.6499 44.6039L25.1421 45.2263L23.424 45.7253L21.4957 46.1008L19.3571 46.3529L17.7977 46.3981L16.3585 46.2667L15.0371 45.9705L13.8306 45.5211L12.7366 44.9304L11.7523 44.2102L10.8751 43.3722L10.1023 42.4282L9.43137 41.39L8.85957 40.2694L8.38437 39.078L8.00307 37.8278L7.71307 36.5305L7.51157 35.1978L7.39617 33.8415L7.36397 32.4734L7.41257 31.1053L7.53917 29.749L7.74127 28.4161L8.01607 27.1186L8.36097 25.8681L8.77347 24.6765L9.25077 23.5555L9.79027 22.5169L10.3894 21.5724L11.0454 20.7339L11.7557 20.0131L11.6231 18.7757L11.5789 18.0686L9.97837 18.0284L8.48747 17.8436L7.10617 17.5142L5.83437 17.0401L4.67217 16.4214L3.61957 15.658L2.67647 14.75L1.843 13.6974L1.11909 12.5001L0.50476 11.1582L0 9.6717L1.16106 6.7443L2.20334 5.0048L2.96557 4.1987L3.28667 4.0714L3.00517 4.3684M19.6222 15.2402L40.7471 11.3069L39.1324 12.4366L37.6915 13.5571L36.4243 14.6684L35.3308 15.7705L34.411 16.8634L33.6649 17.9471L33.0926 19.0215L32.6939 20.0868L32.4689 21.1429L32.4177 22.1897L32.5401 23.2273L32.8363 24.2558L33.3796 24.272L33.9776 24.2711L34.6241 24.2279L35.3126 24.1178L36.0369 23.9158L36.7906 23.597L37.5674 23.1365L38.3609 22.5094L39.1647 21.6908L39.9726 20.6559L40.7782 19.3798L41.5751 17.8375L42.357 16.0042L43.1175 13.855L43.8504 11.3649L44.5492 8.5092L44.4555 6.0405L44.4242 5.1342L43.7465 3.5932L42.6195 2.5951L41.0433 2.1401L39.018 2.228L38.5417 2.2618L37.922 2.3638L37.1735 2.5346L36.3108 2.7751L35.3487 3.0859L34.3016 3.4679L33.1842 3.9217L32.0113 4.4481L30.7973 5.0478L29.557 5.7215L28.3049 6.4701L27.0558 7.2942L25.8241 8.1946L24.6247 9.172L23.4721 10.2272L22.3809 11.3608L21.3657 12.5737L20.4413 13.8666L19.6222 15.2402" sodipodi:nodetypes="ccccccccccccccccccccccccccccccccccccccccccccccccccccccccccccccccccccccccccccccccccccccccccccccccccccccccccccccccccccccccccccccccccccccccccccccccccccccccccccccccccccccccccccccccccccccccccccccccccccccccccccccccccccccccccccccc"/>
  <path id="shape1" transform="translate(38.6594659570495, 1.29648399282948)" fill="#00aff0" fill-rule="evenodd" stroke-opacity="0" stroke="#000000" stroke-width="0" stroke-linecap="square" stroke-linejoin="bevel" d="M16.051 15.9661L14.6441 16.0874L13.2985 16.3261L12.0141 16.6824L10.791 17.1561L9.6291 17.7474L8.5285 18.4561L7.4891 19.2824L6.511 20.2261L5.5941 21.2874L4.7385 22.4661L3.4893 24.4167L2.4762 26.1497L1.676 27.6744L1.0657 29.0001L0.622 30.1359L0.3218 31.0911L0.1421 31.8751L0.0595 32.497L0.051 32.9661L0 34.0156L0.258 35.4521L1.104 36.9576L2.817 38.2141L5.676 38.9036L7.8908 38.4817L9.2854 37.3567L10.1408 36.1614L10.7385 35.5286L11.3713 37.2786L13.551 38.8411L14.4256 38.7199L15.2981 38.5393L16.213 38.2226L17.2151 37.6927L18.349 36.8727L19.6594 35.6858L21.191 34.0551L22.9885 31.9036L23.1916 32.9349L23.176 35.2786L23.7421 37.2314L25.2014 38.4502L27.5538 38.9351L28.6041 38.8066L29.6779 38.5097L30.7752 38.0443L31.8959 37.4104L33.0401 36.608L34.2078 35.6371L35.399 34.4977L36.0892 33.7545L36.0198 33.7474L36.126 33.6264L36.4309 33.2637L36.9344 32.6591L37.6365 31.8127L38.5373 30.7245L39.6367 29.3944L40.9347 27.8225L42.4314 26.0088L44.1266 23.9533L44.4691 25.0904L44.7365 26.2213L44.9287 27.346L45.0459 28.4646L45.0878 29.577L45.0547 30.6831L44.9464 31.7831L44.763 32.8769L44.5045 33.9646L44.1708 35.046L43.8725 35.8636L41.3866 37.0789L40.4749 37.0822L38.6891 36.1918L37.4533 33.1898L37.1447 33.3085L36.926 33.8411L36.7367 33.8215L37.0503 35.4314L37.8298 37.1355L38.9524 38.3022L40.4179 38.9316L42.2263 39.0235L44.5045 38.5987L46.3838 37.8793L47.8555 37.0347L48.9111 36.2343L49.5418 35.6475L49.7393 35.4437L50.0459 35.1565L51.0099 34.2063L52.6312 32.5932L54.91 30.3172L58.6135 25.5884L61.8045 20.2409L61.6805 19.8473L60.6295 19.9661L60.3815 20.2441L60.0117 20.6665L59.5211 21.2334L58.9093 21.9447L58.1763 22.8006L57.3221 23.8008L56.3466 24.9456L55.2499 26.2348L54.032 27.6685L52.6929 29.2466L51.2325 30.9692L49.6509 32.8363L49.8737 32.2552L50.0278 31.5726L50.1133 30.7884L50.1301 29.9027L50.0782 28.9154L49.9577 27.8266L49.7685 26.6363L49.5106 25.3445L49.1841 23.9511L48.7889 22.4561L48.3251 20.8597L48.3427 18.8886L48.3604 17.2888L48.3781 16.0602L48.3958 15.2028L48.4135 14.7167L49.319 13.4197L50.3183 12.2815L51.4114 11.302L52.5984 10.4813L53.8791 9.81918L55.2536 9.31598L56.722 8.97138L55.293 8.93218L53.9525 8.93218L52.7003 8.97138L46.3363 10.8276L41.0772 11.0928L45.2757 3.44718L44.3034 2.01088L42.5356 0L42.0009 0.95106L41.4396 1.93038L40.8518 2.93798L40.2375 3.97398L39.5967 5.03818L38.9294 6.13058L38.2355 7.25138L37.5152 8.40038L36.7683 9.57778L35.9949 10.7834L31.6197 10.9602L28.3051 10.916L26.4244 10.1058L24.9071 9.14818L23.7531 8.04338L22.6924 8.26428L22.6041 9.63428L23.4658 11.4905L24.7254 12.4628L25.8076 12.8015L27.1783 13.1572L28.6488 13.4937L30.0301 13.7752L31.1335 13.9654L32.6142 14.3182L34.051 14.9349L32.7454 16.7348L31.491 18.4533L30.2879 20.0904L29.136 21.6461L28.0354 23.1204L26.986 24.5133L25.9879 25.8248L25.041 27.0549L24.1454 28.2035L23.301 29.2708L22.5079 30.2566L21.766 31.1611L21.0754 31.9841L20.436 32.7258L19.8479 33.386L19.311 33.9649L18.8254 34.4623L18.391 34.8783L18.0079 35.2129L17.676 35.4661L16.176 35.8724L15.301 35.8411L15.3635 33.4661L21.801 24.4661L20.9416 22.888L19.3635 22.7786L19.7385 20.0911L19.4677 18.2439L18.2385 16.8689L16.051 15.9661M16.6135 19.0286L15.1819 18.8352L13.8244 18.9114L12.5412 19.2571L11.3323 19.8724L10.1975 20.7571L9.1369 21.9114L8.1506 23.3352L7.2385 25.0286L6.7024 25.9114L6.1877 26.8724L5.6946 27.9114L5.2229 29.0286L4.7727 30.2239L4.344 31.4974L3.9367 32.8489L3.551 34.2786L4.051 36.1849L5.676 37.0286L6.806 36.5055L8.0832 35.7268L9.4322 34.7533L10.7776 33.6458L12.0438 32.465L13.1555 31.2718L14.0372 30.1269L14.6135 29.0911L14.4123 27.7854L14.9729 26.2395L15.9319 24.7757L16.926 23.7161L17.0811 22.1258L17.0417 20.5772L16.6135 19.0286M42.8008 12.8605L39.663 13.0815L39.0058 13.4832L38.3248 14.0343L37.6199 14.7348L36.8912 15.5847L36.1385 16.5839L35.362 17.7325L34.5617 19.0305L33.7375 20.4778L32.8894 22.0746L32.0174 23.8207L30.9654 25.9717L30.0201 27.8808L29.1835 29.5604L28.4573 31.0227L27.8435 32.28L27.3439 33.3445L26.9603 34.2286L26.6945 34.9445L26.5484 35.5045L26.5238 35.9209L26.6227 36.2059L26.8467 36.3718L27.714 36.6853L28.7471 36.6922L30.1778 35.9865L32.2384 34.1621L33.7103 32.4294L35.0727 30.8311L36.3254 29.3672L37.4686 28.0378L38.5023 26.8427L39.4263 25.782L40.2408 24.8558L40.9457 24.0639L41.5411 23.4065L42.0269 22.8835L42.4031 22.4949L42.8008 12.8605" sodipodi:nodetypes="cccccccccccccccccccccccccccccccccccccccccccccccccccccccccccccccccccccccccccccccccccccccccccccccccccccccccccccccccccccccccccccccccccccccccccccccccccccccccccccccccccccccccccccccccccccccccccccccccccccccccccccccccccccccccccccccccccccccccccccccccccccccccccccccccccccccccccccccc"/>
  <path id="shape2" transform="translate(27.1843345205966, 32.3311048967521)" fill="#00aff0" stroke-opacity="0" stroke="#000000" stroke-width="0" stroke-linecap="square" stroke-linejoin="bevel" d="M0.577648 1.51795C-0.970686 -0.212053 0.797544 -0.58631 3.46421 1.03869" sodipodi:nodetypes="cc"/>
 </g>
</svg>
