<?xml version="1.0" standalone="no"?>
<!DOCTYPE svg PUBLIC "-//W3C//DTD SVG 20010904//EN" "http://www.w3.org/TR/2001/REC-SVG-20010904/DTD/svg10.dtd">
<!-- Created using Krita: https://krita.org -->
<svg xmlns="http://www.w3.org/2000/svg" 
    xmlns:xlink="http://www.w3.org/1999/xlink"
    xmlns:krita="http://krita.org/namespaces/svg/krita"
    xmlns:sodipodi="http://sodipodi.sourceforge.net/DTD/sodipodi-0.dtd"
    width="240pt"
    height="240pt"
    viewBox="0 0 240 240">
<defs>
  <radialGradient id="gradient0" gradientUnits="objectBoundingBox" cx="0" cy="0" fx="0" fy="0" r="1.4142135623731" spreadMethod="reflect">
   <stop stop-color="#ffffff" offset="0" stop-opacity="1"/>
   <stop stop-color="#3db8ff" offset="0.9262" stop-opacity="1"/>
   <stop stop-color="#6ec8fa" offset="1" stop-opacity="1"/>
  </radialGradient>
 </defs>
<path id="shape0" transform="translate(5.07790936706652, 5.41263634098455)" fill="url(#gradient0)" fill-rule="evenodd" stroke="#3094ff" stroke-width="4.8" stroke-linecap="round" stroke-linejoin="round" d="M107.836 47.7866L107.505 79.0911L94.5029 84.0601L72.4738 62.2794L70.569 26.9169C69.244 23.549 66.7871 21.727 63.1984 21.451C59.7753 21.8375 57.5393 23.6594 56.4903 26.9169L57.1528 46.8756L41.9146 31.3889L40.0926 30.7264C37.9946 30.0639 35.869 30.5608 33.7158 32.2171C31.5626 33.8734 30.9 36.5235 31.7282 40.1675L47.2976 56.8135C35.8138 56.2062 29.5198 55.7921 28.4155 55.5713C26.6764 55.9025 22.2043 56.5651 22.2043 62.1966C22.2043 65.9509 23.9159 68.4906 27.3389 69.8157L62.7843 71.7205L85.1447 93.8324L79.7616 107L48.1258 106.752L22.2043 83.3147C19.4438 81.8793 16.8213 82.1001 14.3368 83.9773C11.8523 85.8544 11.2174 88.7806 12.432 92.7558L27.0905 106.42C15.1097 106.31 8.20837 106.255 6.38641 106.255C3.73629 106.586 0.258005 107.911 0.00955572 113.046C-0.156077 116.469 1.83151 118.898 5.97233 120.334L26.842 120.416C18.3948 128.201 13.5914 132.977 12.432 134.744C10.6929 137.394 11.1898 140.375 13.5086 143.439C15.0545 145.482 17.5942 146.117 21.1277 145.344L48.2086 121.245L79.4304 121.079L84.8962 133.915L62.2874 156.442L27.1733 158.263C23.419 159.699 21.597 162.211 21.7074 165.8C22.1491 169.444 23.9242 171.668 27.0327 172.473L47.353 171.478L31.7761 187.113C30.4097 190.705 30.6634 193.477 32.5374 195.429C34.4113 197.381 37.1636 198.006 40.7943 197.303L56.8397 181.726C56.3713 193.867 56.1761 200.172 56.2541 200.641C56.3322 201.109 56.5079 201.656 56.7812 202.28C57.7572 204.857 59.9825 206.321 63.457 206.672C66.8145 206.672 69.1764 204.857 70.5428 201.226L72.4752 165.973L94.4352 143.838L106.967 148.815L107.026 181.726L83.016 208.312C82.001 211.631 82.7037 214.305 85.1242 216.335C87.5447 218.365 90.4532 218.677 93.8496 217.272L106.499 203.803L106.791 224.767C107.963 227.5 110.559 228.964 114.58 229.159C118.601 229.355 121.295 227.676 122.661 224.123L122.72 205.208C129.161 212.626 132.753 216.667 133.495 217.33C134.315 217.682 135.798 217.955 137.945 218.15C139.819 218.58 142.044 218.014 144.621 216.452C146.651 214.149 147.178 211.591 146.202 208.781L121.548 181.375L121.49 149.928L134.49 144.775L156.684 166.969L158.617 202.222C159.281 205.462 161.662 207.258 165.761 207.609C169.587 206.868 171.891 205.013 172.671 202.046L171.734 182.663L186.316 197.361C190.103 199.235 193.206 199.021 195.627 196.717C198.047 194.414 198.574 191.72 197.208 188.636L181.28 172.415L200.487 173.41C204.43 172.942 206.578 170.658 206.929 166.559C206.07 162.147 204.235 159.727 201.424 159.297L165.995 157.248L144.151 135.323L149.245 122.28L181.982 122.258L206.967 145.013C210.059 147.277 213.317 147.028 216.74 144.268C218.727 140.789 219.141 138.112 217.982 136.234L203.241 122.652L223.448 122.818C228.251 120.941 230.349 118.109 229.742 114.323C229.135 110.537 227.009 108.179 223.365 107.249L202.702 107.207L217.195 94.2879C218.741 90.8648 218.424 88.0353 216.243 85.7992C214.062 83.5632 211.398 82.9145 208.251 83.853L181.584 107.29C171.094 107.262 160.604 107.235 150.114 107.207L144.979 94.7848C149.038 90.6271 153.097 86.4694 157.156 82.3118C160.454 78.9332 163.752 75.5546 167.05 72.176L203.116 70.3126C206.429 69.3326 207.996 66.9309 207.816 63.1076C207.637 59.2842 206.067 56.9923 203.108 56.2319L182.506 57.1759L198.893 39.8362C199.546 36.9661 198.76 34.6282 196.535 32.8226C194.309 31.017 191.83 30.5485 189.097 31.4172L172.671 47.3015L173.579 26.7177C172.346 23.8415 170.087 22.2757 166.802 22.0203C163.517 21.765 161.108 23.3316 159.576 26.7202L157.68 62.3222L135.155 84.8054L122.536 79.5984L122.536 47.828L146.408 21.1404C147.554 18.3385 147.084 15.8333 145 13.6248C142.916 11.4164 140.418 10.7953 137.505 11.7615L123.012 26.6891L123.012 5.11547C122.736 1.76141 120.521 0.0567734 116.366 0.00156257C112.212 -0.0536483 109.755 1.35423 108.996 4.22519L108.954 26.1301C99.6513 16.9651 94.5857 12.1618 93.7576 11.7201C92.5153 11.0575 88.2089 10.2708 85.5588 12.7553C83.792 14.4116 83.1847 17.1721 83.7368 21.0369L101.625 40.5815L107.712 46.4615" sodipodi:nodetypes="cccccccccczccczcccccczccczcczzcccccccccczcczcccccccczccczccccccccccccccczcccccccccccccczccczccccccczccczccczcccccczccczcczzccc"/>
</svg>
